<svg width="20" height="20" viewBox="0 0 20 20" fill="none" xmlns="http://www.w3.org/2000/svg">
<path d="M10 0.625C10.957 0.625148 12.0467 1.24345 12.8652 2.69238C13.0665 3.04873 13.2534 3.45806 13.4209 3.92578C14.0305 3.78963 14.5817 3.71933 15.0781 3.7041C16.7811 3.65204 17.925 4.25039 18.415 5.10547C18.8977 5.94833 18.8809 7.22213 17.9932 8.68457C17.7367 9.10716 17.4036 9.54933 16.9844 10.0117C17.3819 10.4553 17.7019 10.8811 17.9521 11.2891C18.8466 12.7472 18.9037 14.0402 18.415 14.8936C17.9314 15.7382 16.825 16.3624 15.1211 16.3184C14.6131 16.3052 14.0461 16.2328 13.415 16.0889C13.2489 16.5504 13.0644 16.955 12.8652 17.3076C12.0467 18.7565 10.957 19.3749 10 19.375C9.0308 19.3748 7.94426 18.7133 7.13281 17.2607C6.94113 16.9176 6.76392 16.5264 6.60254 16.084C5.9641 16.2307 5.39076 16.3051 4.87793 16.3184C3.17437 16.3622 2.06757 15.7381 1.58398 14.8936C1.09569 14.0402 1.15361 12.747 2.04785 11.2891C2.29809 10.8811 2.61821 10.4553 3.01563 10.0117C2.59661 9.54947 2.2633 9.10704 2.00684 8.68457C1.11933 7.22227 1.10142 5.94827 1.58398 5.10547C2.07379 4.25019 3.21779 3.65214 4.9209 3.7041C5.422 3.71942 5.97916 3.792 6.5957 3.93066C6.75852 3.48205 6.93895 3.08635 7.13281 2.73926C7.94425 1.28668 9.0308 0.625191 10 0.625ZM10 14.8467C9.20762 15.2242 8.47859 15.5189 7.80859 15.7422C7.93943 16.089 8.07822 16.391 8.22363 16.6514C8.8945 17.8523 9.62736 18.1248 10 18.125C10.3848 18.1248 11.1135 17.8675 11.7773 16.6924C11.9285 16.4248 12.0727 16.111 12.208 15.7471C11.5336 15.5231 10.7989 15.2273 10 14.8467ZM3.90137 10.8955C3.5719 11.2684 3.3126 11.6184 3.11328 11.9434C2.36125 13.1696 2.4868 13.9538 2.66895 14.2725C2.85623 14.5995 3.44684 15.1044 4.8457 15.0684C5.24814 15.058 5.7116 14.9997 6.24121 14.8828C6.06709 14.1691 5.93086 13.3551 5.84473 12.4297C5.08837 11.9023 4.44525 11.39 3.90137 10.8955ZM16.0977 10.8955C15.5545 11.3892 14.9131 11.9012 14.1582 12.4277C14.0743 13.3568 13.9412 14.1721 13.7705 14.8857C14.2949 15.0009 14.754 15.058 15.1533 15.0684C16.5525 15.1045 17.1427 14.5996 17.3301 14.2725C17.5124 13.9541 17.6389 13.17 16.8867 11.9434C16.6873 11.6183 16.4274 11.2686 16.0977 10.8955ZM12.7969 13.3174C12.5826 13.4489 12.3614 13.5818 12.1328 13.7148C11.8916 13.8552 11.6546 13.9878 11.4229 14.1152C11.8273 14.2853 12.2077 14.429 12.5654 14.5488C12.6532 14.1753 12.732 13.766 12.7969 13.3174ZM7.20996 13.3213C7.27626 13.7665 7.35499 14.1739 7.44434 14.5459C7.79929 14.4268 8.17634 14.2838 8.57715 14.1152C8.34554 13.9879 8.10823 13.8552 7.86719 13.7148C7.64094 13.5831 7.4222 13.4515 7.20996 13.3213ZM10 6.54688C9.52527 6.78647 9.02369 7.05711 8.49609 7.36426C7.96893 7.67116 7.4859 7.97299 7.04297 8.26758C7.00773 8.80265 6.98828 9.37921 6.98828 10C6.98828 10.6208 7.00773 11.1974 7.04297 11.7324C7.48591 12.0258 7.96863 12.3277 8.49609 12.6348C9.02439 12.9423 9.52595 13.2138 10 13.4541C10.4742 13.2137 10.9755 12.9424 11.5039 12.6348C12.0313 12.3277 12.5141 12.0258 12.957 11.7324C12.9911 11.1978 13.0107 10.6214 13.0107 10C13.0107 9.37862 12.9911 8.80218 12.957 8.26758C12.5142 7.97305 12.0309 7.67108 11.5039 7.36426C10.9762 7.05707 10.4748 6.78649 10 6.54688ZM14.249 9.19434C14.2559 9.45551 14.2607 9.72397 14.2607 10C14.2607 10.2781 14.256 10.5485 14.249 10.8115C14.6078 10.535 14.9296 10.2667 15.2178 10.0068C14.9295 9.74405 14.6077 9.47302 14.249 9.19434ZM5.75 9.19434C5.39158 9.47286 5.07027 9.74419 4.78223 10.0068C5.0702 10.2666 5.39153 10.5352 5.75 10.8115C5.74283 10.5484 5.73828 10.278 5.73828 10C5.73828 9.72408 5.74294 9.45559 5.75 9.19434ZM4.88281 4.9541C3.45707 4.91061 2.85025 5.4102 2.66895 5.72656C2.48062 6.05547 2.34257 6.829 3.0752 8.03613C3.27867 8.37131 3.54872 8.7341 3.89648 9.12305C4.44159 8.62217 5.08629 8.10383 5.84473 7.57227C5.93026 6.65239 6.06478 5.84253 6.2373 5.13184C5.72734 5.02189 5.27697 4.96616 4.88281 4.9541ZM15.1162 4.9541C14.7252 4.96612 14.2792 5.02069 13.7744 5.12891C13.9436 5.83957 14.0758 6.65072 14.1592 7.57422C14.9161 8.1049 15.5592 8.62296 16.1035 9.12305C16.4515 8.73396 16.7213 8.37141 16.9248 8.03613C17.6576 6.82881 17.5184 6.05549 17.3301 5.72656C17.1484 5.41014 16.5414 4.91053 15.1162 4.9541ZM12.5674 5.46094C12.2103 5.57873 11.8309 5.71936 11.4287 5.88672C11.6588 6.01302 11.8937 6.14499 12.1328 6.28418C12.3612 6.41717 12.5827 6.54997 12.7969 6.68164C12.7326 6.2373 12.6542 5.83158 12.5674 5.46094ZM7.44141 5.46387C7.35309 5.83296 7.27564 6.23685 7.20996 6.67773C7.42217 6.54735 7.64101 6.41585 7.86719 6.28418C8.10595 6.14518 8.34055 6.01286 8.57031 5.88672C8.17168 5.72091 7.79567 5.58096 7.44141 5.46387ZM10 1.875C9.62736 1.8752 8.8945 2.14768 8.22363 3.34863C8.07685 3.61144 7.93658 3.91661 7.80469 4.26758C8.47707 4.48844 9.2081 4.77929 10 5.1543C10.7985 4.77612 11.535 4.48326 12.2119 4.26172C12.0757 3.89391 11.9297 3.57744 11.7773 3.30762C11.1135 2.13249 10.3848 1.87515 10 1.875Z" fill="#333333"/>
</svg>
