<svg xmlns="http://www.w3.org/2000/svg" width="21" height="21" viewBox="0 0 21 21" fill="none">
  <path d="M10.4895 0.804687C11.4465 0.804853 12.5362 1.42303 13.3547 2.87207C13.5561 3.22867 13.7428 3.63831 13.9104 4.10645C14.52 3.97029 15.0711 3.89899 15.5676 3.88379C17.2707 3.83174 18.4146 4.42998 18.9045 5.28516C19.3871 6.12798 19.3702 7.40189 18.4826 8.86426C18.2262 9.28678 17.8929 9.72909 17.4738 10.1914C17.8713 10.635 18.1914 11.0608 18.4416 11.4687C19.336 12.9268 19.393 14.2198 18.9045 15.0732C18.4209 15.9179 17.3145 16.5421 15.6106 16.498C15.1023 16.4849 14.535 16.4117 13.9035 16.2676C13.7374 16.7294 13.554 17.1346 13.3547 17.4873C12.5362 18.9363 11.4465 19.5545 10.4895 19.5547C9.52018 19.5547 8.43385 18.8932 7.62229 17.4404C7.43067 17.0974 7.25238 16.7068 7.09104 16.2646C6.4529 16.4113 5.88004 16.4848 5.3674 16.498C3.6636 16.542 2.55708 15.9179 2.07346 15.0732C1.58504 14.2198 1.643 12.9268 2.53733 11.4687C2.7875 11.061 3.10688 10.6348 3.50412 10.1914C3.08522 9.72925 2.75273 9.28665 2.49631 8.86426C1.60868 7.40187 1.59087 6.12799 2.07346 5.28516C2.56336 4.42992 3.7072 3.83173 5.41037 3.88379C5.91157 3.89912 6.4685 3.97163 7.08518 4.11035C7.24801 3.66172 7.42841 3.26604 7.62229 2.91895C8.43385 1.46617 9.52018 0.804687 10.4895 0.804687ZM10.4885 15.0264C9.6961 15.4039 8.9671 15.6987 8.29709 15.9219C8.42798 16.2688 8.56764 16.5706 8.71311 16.8311C9.38423 18.0324 10.117 18.3047 10.4895 18.3047C10.8743 18.3045 11.603 18.0473 12.2668 16.8721C12.4179 16.6045 12.5612 16.2906 12.6965 15.9268C12.0221 15.7028 11.2873 15.407 10.4885 15.0264ZM4.39084 11.0752C4.06134 11.4481 3.8021 11.7981 3.60276 12.123C2.85055 13.3495 2.97621 14.1336 3.15842 14.4521C3.34572 14.7793 3.93601 15.2842 5.33518 15.248C5.73748 15.2376 6.20032 15.1794 6.72971 15.0625C6.5556 14.3488 6.41935 13.5348 6.33322 12.6094C5.57714 12.0821 4.93459 11.5695 4.39084 11.0752ZM16.5871 11.0742C16.0438 11.5682 15.4021 12.0806 14.6467 12.6074C14.5628 13.5364 14.4307 14.3518 14.26 15.0654C14.7844 15.1805 15.2435 15.2377 15.6428 15.248C17.0419 15.2842 17.6322 14.7793 17.8196 14.4521C18.0018 14.1337 18.1283 13.3494 17.3762 12.123C17.1767 11.7978 16.9171 11.4475 16.5871 11.0742ZM13.2863 13.4961C13.0719 13.6277 12.8511 13.7613 12.6223 13.8945C12.3809 14.0351 12.1433 14.1674 11.9113 14.2949C12.3162 14.4652 12.6968 14.6096 13.0549 14.7295C13.1428 14.3555 13.2214 13.9454 13.2863 13.4961ZM7.69846 13.501C7.76477 13.9462 7.84445 14.3535 7.93381 14.7256C8.28852 14.6065 8.66516 14.4633 9.06565 14.2949C8.83416 14.1677 8.59756 14.0348 8.35666 13.8945C8.13016 13.7627 7.91092 13.6313 7.69846 13.501ZM10.4895 6.72656C10.0147 6.96618 9.51325 7.23675 8.98557 7.54395C8.45817 7.85097 7.97455 8.15256 7.53147 8.44727C7.49623 8.98232 7.47776 9.55891 7.47776 10.1797C7.47776 10.8005 7.49721 11.377 7.53244 11.9121C7.9754 12.2055 8.45809 12.5074 8.98557 12.8145C9.514 13.1221 10.0153 13.3934 10.4895 13.6338C10.9636 13.3934 11.465 13.1221 11.9934 12.8145C12.521 12.5073 13.0034 12.2046 13.4465 11.9111C13.4806 11.3768 13.5002 10.8007 13.5002 10.1797C13.5002 9.55832 13.4806 8.98186 13.4465 8.44727C13.0036 8.15267 12.5205 7.85084 11.9934 7.54395C11.4657 7.23675 10.9643 6.96618 10.4895 6.72656ZM6.23947 9.37402C5.88104 9.65254 5.55975 9.92388 5.2717 10.1865C5.55969 10.4463 5.88099 10.7148 6.23947 10.9912C6.23231 10.7281 6.22776 10.4577 6.22776 10.1797C6.22776 9.90376 6.23241 9.63528 6.23947 9.37402ZM14.7385 9.37305C14.7453 9.63452 14.7502 9.90332 14.7502 10.1797C14.7502 10.4578 14.7445 10.7282 14.7375 10.9912C15.0963 10.7147 15.4181 10.4464 15.7063 10.1865C15.4181 9.92377 15.0971 9.65169 14.7385 9.37305ZM5.37229 5.13379C3.94658 5.09021 3.33988 5.58985 3.15842 5.90625C2.97009 6.23517 2.83191 7.00857 3.56467 8.21582C3.76819 8.55106 4.03809 8.9137 4.38596 9.30273C4.93082 8.80211 5.57525 8.28421 6.33322 7.75293C6.41875 6.83269 6.55323 6.02245 6.7258 5.31152C6.21608 5.20166 5.76629 5.14585 5.37229 5.13379ZM15.6057 5.13379C15.2147 5.14577 14.7687 5.2004 14.2639 5.30859C14.433 6.01922 14.5643 6.83047 14.6477 7.75391C15.4046 8.28458 16.0477 8.80265 16.592 9.30273C16.9401 8.91354 17.2107 8.55118 17.4143 8.21582C18.147 7.0086 18.0079 6.23516 17.8196 5.90625C17.638 5.58985 17.0312 5.09022 15.6057 5.13379ZM13.0569 5.64062C12.6998 5.7584 12.3204 5.89905 11.9182 6.06641C12.1483 6.19271 12.3832 6.32467 12.6223 6.46387C12.851 6.59701 13.0719 6.73047 13.2863 6.8623C13.222 6.4176 13.1437 6.01153 13.0569 5.64062ZM7.93088 5.64453C7.84264 6.01342 7.76409 6.41684 7.69846 6.85742C7.91085 6.72692 8.13027 6.59566 8.35666 6.46387C8.5955 6.32483 8.82995 6.19259 9.05979 6.06641C8.66127 5.90064 8.28505 5.76162 7.93088 5.64453ZM10.4895 2.05469C10.117 2.05469 9.38423 2.32694 8.71311 3.52832C8.56626 3.79121 8.42512 4.09615 8.29319 4.44727C8.9658 4.66818 9.69724 4.9588 10.4895 5.33398C11.2876 4.95598 12.0237 4.6629 12.7004 4.44141C12.5642 4.07367 12.4192 3.75708 12.2668 3.4873C11.603 2.31207 10.8743 2.05486 10.4895 2.05469Z" fill="#4838db"/>
</svg>