<?xml version="1.0" standalone="no"?><!DOCTYPE svg PUBLIC "-//W3C//DTD SVG 1.1//EN" "http://www.w3.org/Graphics/SVG/1.1/DTD/svg11.dtd"><svg t="1768297130353" class="icon" viewBox="0 0 1024 1024" version="1.1" xmlns="http://www.w3.org/2000/svg" p-id="26257" xmlns:xlink="http://www.w3.org/1999/xlink" width="200" height="200"><path d="M215.29745294 361.88860302c-16.88809927 0-30.58137429 13.79806094-30.58137429 30.77115449 0 8.14773703 3.19599047 15.99974286 8.93130752 21.75601664a30.56274546 30.56274546 0 0 0 21.65006677 9.01630066h522.52746866c16.90789319-0.04191459 30.58137429-13.79922489 30.58137429-30.7723173 0-17.12212309-13.69443897-30.77115449-30.58137429-30.77115449H215.29745294z m259.23262123 597.99474631H87.70352242c-8.42367431 0-15.21617237-7.02652075-15.21617237-15.40595256V141.34434133c0-8.48654677 6.94152761-15.38615865 15.21617237-15.38615864h193.94244835v61.45964259c0 17.05692274 13.65019534 30.85614763 30.47425821 30.85614763h328.88191659c16.84502073 0 30.47542329-13.79922489 30.47542328-30.85614763v-61.45964259h193.94128328c8.42367431 0 15.21617237 7.00556288 15.21617237 15.38615864v316.96535666c0 16.99405027 13.69327389 30.77231843 30.62445283 30.77231844 16.88809927 0 30.60233102-13.77710307 30.60233102-30.77231844V95.26037845c0-17.01500814-13.67231715-30.85614763-30.56041642-30.85614648H671.47640377V33.7273856c0-17.06856562-13.65135929-30.86779051-30.47542215-30.86779051H312.12022898c-16.84618467 0-30.47425821 13.82018275-30.47425821 30.86779051v30.67684637H41.81981867a30.53596672 30.53596672 0 0 0-21.62911005 9.0570513c-5.73531705 5.78887453-8.93130752 13.63040256-8.93130638 21.79909518v895.31146013c-0.02095787 16.99521536 13.67231715 30.81423303 30.56041643 30.85731157h432.70909155c16.88693533 0 30.60233102-13.80038883 30.60233103-30.77348238 0-17.01617209-13.71423175-30.77231843-30.60116708-30.77231844z m-131.63752676-880.24198826a15.45019506 15.45019506 0 0 1 4.56985828-10.8360943 15.23130823 15.23130823 0 0 1 10.83609316-4.40219989h236.52421176c8.52729742 0 15.40595257 6.94036253 15.40595257 15.23829419v61.84968192a15.23829419 15.23829419 0 0 1-4.57335125 10.83609315 15.139328 15.139328 0 0 1-10.83376526 4.40219989H358.29966393c-8.5075035 0-15.40595257-6.94152761-15.40595257-15.23829304v-61.84968192zM403.97030173 792.26910493c16.91022109 0 30.62328889-13.79922489 30.62328774-30.77231844 0-17.01500814-13.71306667-30.79211122-30.62328774-30.79211122H215.487232c-16.95213568 0-30.77115449 13.77710307-30.77115335 30.79211122a30.85381859 30.85381859 0 0 0 9.03609344 21.79793237c5.77839673 5.77956067 13.60828075 9.01630066 21.73505991 8.97438607H403.97030173z m72.71837582-260.64956872h-261.45409707c-16.84618467 0-30.51733789 13.75614635-30.51733789 30.77231844 0 17.10116523 13.67231715 30.77115449 30.51733789 30.77115335h261.45409707c16.824064 0 30.47542329-13.75498126 30.47542328-30.77115335 0-17.10116523-13.63040256-30.77231843-30.47542328-30.77231844z m512.79046997 206.13261768H966.81381547c-10.30750435 0-21.27050638-8.12677917-24.40129536-18.05355919l-12.91086848-31.72354731c-4.90983197-9.14204445-2.92005205-22.64437419 4.40103594-30.00854072l16.04282141-16.10569387c7.32225195-7.38628835 7.32225195-19.40647026 0-26.75084288l-26.66584975-26.75200797a18.76610731 18.76610731 0 0 0-26.62393514 0l-16.04165746 16.08357206c-7.28033735 7.32341589-20.76054528 9.33415367-29.90375367 4.42315662l-31.47089465-13.03544718c-9.86157966-3.0690816-17.96740096-14.09495609-17.9674021-24.55032491v-22.68628878c0-10.39133355-8.52846137-18.91979491-18.83596458-18.91979491h-37.6067311c-10.3505829 0-18.83596573 8.52962531-18.83596458 18.91979491v22.68628878c0 10.4984485-8.08486457 21.50336512-17.98952278 24.59223951l-31.53376711 12.99353258c-9.12108771 4.91099705-22.49650859 2.90025927-29.84088235-4.42315662l-16.06261532-16.10452878c-7.30129408-7.36416654-19.28072647-7.36416654-26.58085546 0l-26.60297728 26.70776434c-7.34437262 7.40724509-7.34437262 19.34359779 0 26.75084288l15.9776199 16.12781454c7.34437262 7.36416654 9.33531762 20.86649629 4.42315776 30.0516204l-12.99236864 31.72354731c-3.04695979 9.92561493-14.05304149 18.05355918-24.40129536 18.05355919h-22.5826668c-10.37037568 0-18.83596573 8.48538283-18.83596573 18.91979377v37.79883919c0.02212181 10.45420487 8.46558891 18.91862983 18.83596573 18.91863096h22.5826668c10.34825387 0.04424363 21.31125703 8.17102279 24.40129536 18.07451592l12.99236864 31.68279665c4.8702464 9.16300231 2.921216 22.75032519-4.42315776 30.07257714l-16.0195345 16.08240811c-7.32225195 7.40724509-7.32225195 19.36571961 0 26.77296469l26.64489188 26.74967779c7.34437262 7.34553771 19.23648285 7.34553771 26.58085546 0l16.06261532-16.10452878c7.23842275-7.32341589 20.69767282-9.31203186 29.81992448-4.38124202l31.55472498 13.03661112c9.90465821 3.0690816 17.98952277 14.11474887 17.98952278 24.52704029v22.60245959c0.04191459 10.43441209 8.44346823 18.87904427 18.83596458 18.92212281h37.6067311c10.39249749-0.04307854 18.77192931-8.50983253 18.83596458-18.92212281v-22.60245959c0-10.41229027 8.10582243-21.45912263 17.9674021-24.52704029l31.51397319-13.03661112c9.16300231-4.93078983 22.62341746-2.94217387 29.94450432 4.38124202l15.93687154 16.10452878c7.34437262 7.34553771 19.23648285 7.34553771 26.60297728 0l26.66468579-26.74967779c7.32341589-7.38628835 7.32341589-19.40763421 0-26.77296469l-16.06261532-16.08240811c-7.27917227-7.32225195-9.27011726-20.90957483-4.40219876-30.07257714l12.93066013-31.68279665c3.13195406-9.90465821 14.13803463-18.03027342 24.42341717-18.03027343h22.60246073c10.37037568-0.04424363 18.79405113-8.50866859 18.79404999-18.92095886v-37.84075378c0.06287246-10.43441209-8.42367431-18.91979491-18.70905685-18.91979377z m-97.62730439 36.18978246a130.94826439 130.94826439 0 0 1-38.0514907 92.31579023c-24.35938077 24.46416782-57.37413177 38.21914909-91.82911488 38.1993563-34.45381917 0.02095787-67.51164871-13.73518848-91.85007275-38.22031303-24.38033863-24.48745358-38.07244857-57.71294151-38.07244857-92.33674809 0-46.64515243 24.76222691-89.75550578 64.95019918-113.09845731a129.33571584 129.33571584 0 0 1 129.90156345 0c40.21009408 23.34295154 64.95019918 66.45330489 64.95020032 113.09845731v0.04191459z" p-id="26258"></path></svg>