<?xml version="1.0" encoding="UTF-8" standalone="no"?>
<!DOCTYPE svg PUBLIC "-//W3C//DTD SVG 1.1//EN"
 "http://www.w3.org/Graphics/SVG/1.1/DTD/svg11.dtd">
<!-- Generated by graphviz version 2.42.4 (0)
 -->
<!-- Title: G Pages: 1 -->
<svg width="2520pt" height="924pt"
 viewBox="0.00 0.00 2520.00 924.00" xmlns="http://www.w3.org/2000/svg" xmlns:xlink="http://www.w3.org/1999/xlink">
<g id="graph0" class="graph" transform="scale(1 1) rotate(0) translate(4 920)">
<title>G</title>
<polygon fill="white" stroke="transparent" points="-4,4 -4,-920 2516,-920 2516,4 -4,4"/>
<text text-anchor="start" x="1030.5" y="-892.2" font-family="Noto Sans CJK SC" font-weight="bold" font-size="26.00">BladeWise刀具报价｜Schema 逻辑图</text>
<text text-anchor="start" x="994.5" y="-875.8" font-family="Noto Sans CJK SC" font-size="14.00">从报价文件采集 → 规格标准化 → 字段目录赋值 → 指数计算 → 成本拆解与采购建议</text>
<g id="clust1" class="cluster">
<title>cluster_input</title>
<path fill="white" stroke="#d9e2f3" d="M20,-234C20,-234 555,-234 555,-234 561,-234 567,-240 567,-246 567,-246 567,-339 567,-339 567,-345 561,-351 555,-351 555,-351 20,-351 20,-351 14,-351 8,-345 8,-339 8,-339 8,-246 8,-246 8,-240 14,-234 20,-234"/>
<text text-anchor="middle" x="287.5" y="-333.4" font-family="Noto Sans CJK SC" font-size="17.00">1. 报价输入层</text>
</g>
<g id="clust2" class="cluster">
<title>cluster_item</title>
<path fill="white" stroke="#d9ead3" d="M730,-53C730,-53 1782.5,-53 1782.5,-53 1788.5,-53 1794.5,-59 1794.5,-65 1794.5,-65 1794.5,-250 1794.5,-250 1794.5,-256 1788.5,-262 1782.5,-262 1782.5,-262 730,-262 730,-262 724,-262 718,-256 718,-250 718,-250 718,-65 718,-65 718,-59 724,-53 730,-53"/>
<text text-anchor="middle" x="1256.25" y="-244.4" font-family="Noto Sans CJK SC" font-size="17.00">2. 报价明细与刀具主数据层</text>
</g>
<g id="clust3" class="cluster">
<title>cluster_catalog</title>
<path fill="white" stroke="#fff2cc" d="M46.5,-757C46.5,-757 1801,-757 1801,-757 1807,-757 1813,-763 1813,-769 1813,-769 1813,-848 1813,-848 1813,-854 1807,-860 1801,-860 1801,-860 46.5,-860 46.5,-860 40.5,-860 34.5,-854 34.5,-848 34.5,-848 34.5,-769 34.5,-769 34.5,-763 40.5,-757 46.5,-757"/>
<text text-anchor="middle" x="923.75" y="-842.4" font-family="Noto Sans CJK SC" font-size="17.00">3. 字段目录与影响标签层</text>
</g>
<g id="clust4" class="cluster">
<title>cluster_value</title>
<path fill="white" stroke="#eadcf8" d="M1204.5,-433C1204.5,-433 1781.5,-433 1781.5,-433 1787.5,-433 1793.5,-439 1793.5,-445 1793.5,-445 1793.5,-668 1793.5,-668 1793.5,-674 1787.5,-680 1781.5,-680 1781.5,-680 1204.5,-680 1204.5,-680 1198.5,-680 1192.5,-674 1192.5,-668 1192.5,-668 1192.5,-445 1192.5,-445 1192.5,-439 1198.5,-433 1204.5,-433"/>
<text text-anchor="middle" x="1493" y="-662.4" font-family="Noto Sans CJK SC" font-size="17.00">4. 抽取值与高级指数层</text>
</g>
<g id="clust5" class="cluster">
<title>cluster_output</title>
<path fill="white" stroke="#fce4d6" d="M1963,-236C1963,-236 2492,-236 2492,-236 2498,-236 2504,-242 2504,-248 2504,-248 2504,-356 2504,-356 2504,-362 2498,-368 2492,-368 2492,-368 1963,-368 1963,-368 1957,-368 1951,-362 1951,-356 1951,-356 1951,-248 1951,-248 1951,-242 1957,-236 1963,-236"/>
<text text-anchor="middle" x="2227.5" y="-350.4" font-family="Noto Sans CJK SC" font-size="17.00">5. 报价输出与分析视图层</text>
</g>
<!-- req -->
<g id="node1" class="node">
<title>req</title>
<path fill="#f8faff" stroke="#9eadcc" d="M221,-306.5C221,-306.5 28,-306.5 28,-306.5 22,-306.5 16,-300.5 16,-294.5 16,-294.5 16,-259.5 16,-259.5 16,-253.5 22,-247.5 28,-247.5 28,-247.5 221,-247.5 221,-247.5 227,-247.5 233,-253.5 233,-259.5 233,-259.5 233,-294.5 233,-294.5 233,-300.5 227,-306.5 221,-306.5"/>
<text text-anchor="middle" x="124.5" y="-288.3" font-family="Noto Sans CJK SC" font-size="14.00">报价请求</text>
<text text-anchor="middle" x="124.5" y="-273.3" font-family="Noto Sans CJK SC" font-size="14.00">quote_requests</text>
<text text-anchor="middle" x="124.5" y="-258.3" font-family="Noto Sans CJK SC" font-size="14.00">&#45; quote_no / customer / status</text>
</g>
<!-- file -->
<g id="node2" class="node">
<title>file</title>
<path fill="#f8faff" stroke="#9eadcc" d="M547,-316C547,-316 375,-316 375,-316 369,-316 363,-310 363,-304 363,-304 363,-254 363,-254 363,-248 369,-242 375,-242 375,-242 547,-242 547,-242 553,-242 559,-248 559,-254 559,-254 559,-304 559,-304 559,-310 553,-316 547,-316"/>
<text text-anchor="middle" x="461" y="-297.8" font-family="Noto Sans CJK SC" font-size="14.00">原始报价文件</text>
<text text-anchor="middle" x="461" y="-282.8" font-family="Noto Sans CJK SC" font-size="14.00">raw_quote_files</text>
<text text-anchor="middle" x="461" y="-267.8" font-family="Noto Sans CJK SC" font-size="14.00">&#45; PDF/Excel/OCR</text>
<text text-anchor="middle" x="461" y="-252.8" font-family="Noto Sans CJK SC" font-size="14.00">&#45; parse_status / confidence</text>
</g>
<!-- req&#45;&gt;file -->
<g id="edge1" class="edge">
<title>req&#45;&gt;file</title>
<path fill="none" stroke="#667085" d="M233.29,-277C233.29,-277 355.32,-277 355.32,-277"/>
<polygon fill="#667085" stroke="#667085" points="355.32,-279.63 362.82,-277 355.32,-274.38 355.32,-279.63"/>
<text text-anchor="middle" x="291" y="-285.2" font-family="Noto Sans CJK SC" font-size="11.00">上传/关联</text>
</g>
<!-- item -->
<g id="node3" class="node">
<title>item</title>
<path fill="#f8faff" stroke="#9eadcc" d="M944,-227C944,-227 738,-227 738,-227 732,-227 726,-221 726,-215 726,-215 726,-165 726,-165 726,-159 732,-153 738,-153 738,-153 944,-153 944,-153 950,-153 956,-159 956,-165 956,-165 956,-215 956,-215 956,-221 950,-227 944,-227"/>
<text text-anchor="middle" x="841" y="-208.8" font-family="Noto Sans CJK SC" font-size="14.00">报价行项目</text>
<text text-anchor="middle" x="841" y="-193.8" font-family="Noto Sans CJK SC" font-size="14.00">quote_items</text>
<text text-anchor="middle" x="841" y="-178.8" font-family="Noto Sans CJK SC" font-size="14.00">&#45; supplier/product/qty</text>
<text text-anchor="middle" x="841" y="-163.8" font-family="Noto Sans CJK SC" font-size="14.00">&#45; quoted price / lead time / MOQ</text>
</g>
<!-- req&#45;&gt;item -->
<g id="edge2" class="edge">
<title>req&#45;&gt;item</title>
<path fill="none" stroke="#667085" d="M125,-247.47C125,-218.18 125,-177.67 125,-177.67 125,-177.67 718.46,-177.67 718.46,-177.67"/>
<polygon fill="#667085" stroke="#667085" points="718.46,-180.29 725.96,-177.67 718.46,-175.04 718.46,-180.29"/>
<text text-anchor="middle" x="461" y="-193.2" font-family="Noto Sans CJK SC" font-size="11.00">一份报价包含多行</text>
</g>
<!-- file&#45;&gt;item -->
<g id="edge3" class="edge">
<title>file&#45;&gt;item</title>
<path fill="none" stroke="#667085" d="M461,-241.57C461,-222.1 461,-202.33 461,-202.33 461,-202.33 718.46,-202.33 718.46,-202.33"/>
<polygon fill="#667085" stroke="#667085" points="718.46,-204.96 725.96,-202.33 718.46,-199.71 718.46,-204.96"/>
<text text-anchor="middle" x="640" y="-271.2" font-family="Noto Sans CJK SC" font-size="11.00">解析出报价行</text>
</g>
<!-- value -->
<g id="node11" class="node">
<title>value</title>
<path fill="#f8faff" stroke="#9eadcc" d="M1369,-644.5C1369,-644.5 1214,-644.5 1214,-644.5 1208,-644.5 1202,-638.5 1202,-632.5 1202,-632.5 1202,-567.5 1202,-567.5 1202,-561.5 1208,-555.5 1214,-555.5 1214,-555.5 1369,-555.5 1369,-555.5 1375,-555.5 1381,-561.5 1381,-567.5 1381,-567.5 1381,-632.5 1381,-632.5 1381,-638.5 1375,-644.5 1369,-644.5"/>
<text text-anchor="middle" x="1291.5" y="-626.3" font-family="Noto Sans CJK SC" font-size="14.00">字段取值实例</text>
<text text-anchor="middle" x="1291.5" y="-611.3" font-family="Noto Sans CJK SC" font-size="14.00">quote_field_values</text>
<text text-anchor="middle" x="1291.5" y="-596.3" font-family="Noto Sans CJK SC" font-size="14.00">&#45; raw/normalized/value</text>
<text text-anchor="middle" x="1291.5" y="-581.3" font-family="Noto Sans CJK SC" font-size="14.00">&#45; source_page/cell/bbox</text>
<text text-anchor="middle" x="1291.5" y="-566.3" font-family="Noto Sans CJK SC" font-size="14.00">&#45; confidence</text>
</g>
<!-- file&#45;&gt;value -->
<g id="edge13" class="edge">
<title>file&#45;&gt;value</title>
<path fill="none" stroke="#667085" d="M461,-316.14C461,-400.63 461,-600 461,-600 461,-600 1194.33,-600 1194.33,-600"/>
<polygon fill="#667085" stroke="#667085" points="1194.33,-602.63 1201.83,-600 1194.33,-597.38 1194.33,-602.63"/>
<text text-anchor="middle" x="841" y="-526.2" font-family="Noto Sans CJK SC" font-size="11.00">保留来源证据</text>
</g>
<!-- master -->
<g id="node4" class="node">
<title>master</title>
<path fill="#f8faff" stroke="#9eadcc" d="M1394,-135C1394,-135 1189,-135 1189,-135 1183,-135 1177,-129 1177,-123 1177,-123 1177,-73 1177,-73 1177,-67 1183,-61 1189,-61 1189,-61 1394,-61 1394,-61 1400,-61 1406,-67 1406,-73 1406,-73 1406,-123 1406,-123 1406,-129 1400,-135 1394,-135"/>
<text text-anchor="middle" x="1291.5" y="-116.8" font-family="Noto Sans CJK SC" font-size="14.00">刀具主数据</text>
<text text-anchor="middle" x="1291.5" y="-101.8" font-family="Noto Sans CJK SC" font-size="14.00">tool_master</text>
<text text-anchor="middle" x="1291.5" y="-86.8" font-family="Noto Sans CJK SC" font-size="14.00">&#45; normalized_model</text>
<text text-anchor="middle" x="1291.5" y="-71.8" font-family="Noto Sans CJK SC" font-size="14.00">&#45; category / ISO / material group</text>
</g>
<!-- item&#45;&gt;master -->
<g id="edge4" class="edge">
<title>item&#45;&gt;master</title>
<path fill="none" stroke="#667085" d="M956.31,-167.8C1055.6,-167.8 1183,-167.8 1183,-167.8 1183,-167.8 1183,-142.85 1183,-142.85"/>
<polygon fill="#667085" stroke="#667085" points="1185.63,-142.85 1183,-135.35 1180.38,-142.85 1185.63,-142.85"/>
<text text-anchor="middle" x="1076" y="-148.2" font-family="Noto Sans CJK SC" font-size="11.00">匹配或新建刀具主数据</text>
</g>
<!-- spec -->
<g id="node5" class="node">
<title>spec</title>
<path fill="#f8faff" stroke="#9eadcc" d="M1774.5,-227C1774.5,-227 1597.5,-227 1597.5,-227 1591.5,-227 1585.5,-221 1585.5,-215 1585.5,-215 1585.5,-165 1585.5,-165 1585.5,-159 1591.5,-153 1597.5,-153 1597.5,-153 1774.5,-153 1774.5,-153 1780.5,-153 1786.5,-159 1786.5,-165 1786.5,-165 1786.5,-215 1786.5,-215 1786.5,-221 1780.5,-227 1774.5,-227"/>
<text text-anchor="middle" x="1686" y="-208.8" font-family="Noto Sans CJK SC" font-size="14.00">标准化规格</text>
<text text-anchor="middle" x="1686" y="-193.8" font-family="Noto Sans CJK SC" font-size="14.00">tool_specs_normalized</text>
<text text-anchor="middle" x="1686" y="-178.8" font-family="Noto Sans CJK SC" font-size="14.00">&#45; D/OAL/LOC/Z/helix</text>
<text text-anchor="middle" x="1686" y="-163.8" font-family="Noto Sans CJK SC" font-size="14.00">&#45; substrate/coating/coolant</text>
</g>
<!-- item&#45;&gt;spec -->
<g id="edge5" class="edge">
<title>item&#45;&gt;spec</title>
<path fill="none" stroke="#667085" d="M956.28,-197.4C956.28,-197.4 1577.89,-197.4 1577.89,-197.4"/>
<polygon fill="#667085" stroke="#667085" points="1577.89,-200.03 1585.39,-197.4 1577.89,-194.78 1577.89,-200.03"/>
<text text-anchor="middle" x="1291.5" y="-218.2" font-family="Noto Sans CJK SC" font-size="11.00">规格标准化（1:0..1）</text>
</g>
<!-- item&#45;&gt;value -->
<g id="edge12" class="edge">
<title>item&#45;&gt;value</title>
<path fill="none" stroke="#667085" d="M841,-227.18C841,-324.23 841,-577.75 841,-577.75 841,-577.75 1194.46,-577.75 1194.46,-577.75"/>
<polygon fill="#667085" stroke="#667085" points="1194.46,-580.38 1201.96,-577.75 1194.46,-575.13 1194.46,-580.38"/>
<text text-anchor="middle" x="1076" y="-468.2" font-family="Noto Sans CJK SC" font-size="11.00">每个报价行生成多个字段值</text>
</g>
<!-- idxval -->
<g id="node14" class="node">
<title>idxval</title>
<path fill="#f8faff" stroke="#9eadcc" d="M1764.5,-515C1764.5,-515 1607.5,-515 1607.5,-515 1601.5,-515 1595.5,-509 1595.5,-503 1595.5,-503 1595.5,-453 1595.5,-453 1595.5,-447 1601.5,-441 1607.5,-441 1607.5,-441 1764.5,-441 1764.5,-441 1770.5,-441 1776.5,-447 1776.5,-453 1776.5,-453 1776.5,-503 1776.5,-503 1776.5,-509 1770.5,-515 1764.5,-515"/>
<text text-anchor="middle" x="1686" y="-496.8" font-family="Noto Sans CJK SC" font-size="14.00">指数计算结果</text>
<text text-anchor="middle" x="1686" y="-481.8" font-family="Noto Sans CJK SC" font-size="14.00">quote_index_values</text>
<text text-anchor="middle" x="1686" y="-466.8" font-family="Noto Sans CJK SC" font-size="14.00">&#45; score / multiplier</text>
<text text-anchor="middle" x="1686" y="-451.8" font-family="Noto Sans CJK SC" font-size="14.00">&#45; risk_level / explanation</text>
</g>
<!-- item&#45;&gt;idxval -->
<g id="edge17" class="edge">
<title>item&#45;&gt;idxval</title>
<path fill="none" stroke="#667085" d="M956.13,-212.2C1116.32,-212.2 1387,-212.2 1387,-212.2 1387,-212.2 1387,-455.8 1387,-455.8 1387,-455.8 1587.98,-455.8 1587.98,-455.8"/>
<polygon fill="#667085" stroke="#667085" points="1587.98,-458.43 1595.48,-455.8 1587.98,-453.18 1587.98,-458.43"/>
<text text-anchor="middle" x="1291.5" y="-392.2" font-family="Noto Sans CJK SC" font-size="11.00">按报价行计算</text>
</g>
<!-- price -->
<g id="node15" class="node">
<title>price</title>
<path fill="#f8faff" stroke="#9eadcc" d="M2188,-332.5C2188,-332.5 1971,-332.5 1971,-332.5 1965,-332.5 1959,-326.5 1959,-320.5 1959,-320.5 1959,-255.5 1959,-255.5 1959,-249.5 1965,-243.5 1971,-243.5 1971,-243.5 2188,-243.5 2188,-243.5 2194,-243.5 2200,-249.5 2200,-255.5 2200,-255.5 2200,-320.5 2200,-320.5 2200,-326.5 2194,-332.5 2188,-332.5"/>
<text text-anchor="middle" x="2079.5" y="-314.3" font-family="Noto Sans CJK SC" font-size="14.00">价格拆解与建议</text>
<text text-anchor="middle" x="2079.5" y="-299.3" font-family="Noto Sans CJK SC" font-size="14.00">quote_price_outputs</text>
<text text-anchor="middle" x="2079.5" y="-284.3" font-family="Noto Sans CJK SC" font-size="14.00">&#45; material/manufacturing/coating</text>
<text text-anchor="middle" x="2079.5" y="-269.3" font-family="Noto Sans CJK SC" font-size="14.00">&#45; risk/commercial/margin</text>
<text text-anchor="middle" x="2079.5" y="-254.3" font-family="Noto Sans CJK SC" font-size="14.00">&#45; final_unit_price</text>
</g>
<!-- item&#45;&gt;price -->
<g id="edge19" class="edge">
<title>item&#45;&gt;price</title>
<path fill="none" stroke="#667085" d="M899,-227.05C899,-256.17 899,-291.83 899,-291.83 899,-291.83 1951.49,-291.83 1951.49,-291.83"/>
<polygon fill="#667085" stroke="#667085" points="1951.49,-294.46 1958.99,-291.83 1951.49,-289.21 1951.49,-294.46"/>
<text text-anchor="middle" x="1486.5" y="-291.2" font-family="Noto Sans CJK SC" font-size="11.00">成本与报价基础</text>
</g>
<!-- views -->
<g id="node16" class="node">
<title>views</title>
<path fill="#f8faff" stroke="#9eadcc" d="M2484,-325C2484,-325 2324,-325 2324,-325 2318,-325 2312,-319 2312,-313 2312,-313 2312,-263 2312,-263 2312,-257 2318,-251 2324,-251 2324,-251 2484,-251 2484,-251 2490,-251 2496,-257 2496,-263 2496,-263 2496,-313 2496,-313 2496,-319 2490,-325 2484,-325"/>
<text text-anchor="middle" x="2404" y="-306.8" font-family="Noto Sans CJK SC" font-size="14.00">分析视图</text>
<text text-anchor="middle" x="2404" y="-291.8" font-family="Noto Sans CJK SC" font-size="14.00">v_field_catalog</text>
<text text-anchor="middle" x="2404" y="-276.8" font-family="Noto Sans CJK SC" font-size="14.00">v_quote_filter_values</text>
<text text-anchor="middle" x="2404" y="-261.8" font-family="Noto Sans CJK SC" font-size="14.00">v_quote_item_summary</text>
</g>
<!-- item&#45;&gt;views -->
<g id="edge24" class="edge">
<title>item&#45;&gt;views</title>
<path fill="none" stroke="#667085" d="M784,-227.15C784,-231.54 784,-234.5 784,-234.5 784,-234.5 2404,-234.5 2404,-234.5 2404,-234.5 2404,-243.34 2404,-243.34"/>
<polygon fill="#667085" stroke="#667085" points="2401.38,-243.34 2404,-250.84 2406.63,-243.34 2401.38,-243.34"/>
<text text-anchor="middle" x="1686" y="-3.2" font-family="Noto Sans CJK SC" font-size="11.00">报价行总览</text>
</g>
<!-- master&#45;&gt;spec -->
<g id="edge6" class="edge">
<title>master&#45;&gt;spec</title>
<path fill="none" stroke="#667085" d="M1402,-135.35C1402,-158.02 1402,-182.6 1402,-182.6 1402,-182.6 1577.97,-182.6 1577.97,-182.6"/>
<polygon fill="#667085" stroke="#667085" points="1577.97,-185.23 1585.47,-182.6 1577.97,-179.98 1577.97,-185.23"/>
<text text-anchor="middle" x="1486.5" y="-148.2" font-family="Noto Sans CJK SC" font-size="11.00">补全标准属性</text>
</g>
<!-- spec&#45;&gt;price -->
<g id="edge20" class="edge">
<title>spec&#45;&gt;price</title>
<path fill="none" stroke="#667085" d="M1781,-227.01C1781,-247.02 1781,-267.67 1781,-267.67 1781,-267.67 1951.45,-267.67 1951.45,-267.67"/>
<polygon fill="#667085" stroke="#667085" points="1951.45,-270.29 1958.95,-267.67 1951.45,-265.04 1951.45,-270.29"/>
<text text-anchor="middle" x="1882" y="-223.2" font-family="Noto Sans CJK SC" font-size="11.00">规格成本因子</text>
</g>
<!-- section -->
<g id="node6" class="node">
<title>section</title>
<path fill="#f8faff" stroke="#9eadcc" d="M194.5,-824.5C194.5,-824.5 54.5,-824.5 54.5,-824.5 48.5,-824.5 42.5,-818.5 42.5,-812.5 42.5,-812.5 42.5,-777.5 42.5,-777.5 42.5,-771.5 48.5,-765.5 54.5,-765.5 54.5,-765.5 194.5,-765.5 194.5,-765.5 200.5,-765.5 206.5,-771.5 206.5,-777.5 206.5,-777.5 206.5,-812.5 206.5,-812.5 206.5,-818.5 200.5,-824.5 194.5,-824.5"/>
<text text-anchor="middle" x="124.5" y="-806.3" font-family="Noto Sans CJK SC" font-size="14.00">字段分层</text>
<text text-anchor="middle" x="124.5" y="-791.3" font-family="Noto Sans CJK SC" font-size="14.00">quote_sections</text>
<text text-anchor="middle" x="124.5" y="-776.3" font-family="Noto Sans CJK SC" font-size="14.00">物理制造 / 市场非物理</text>
</g>
<!-- group -->
<g id="node7" class="node">
<title>group</title>
<path fill="#f8faff" stroke="#9eadcc" d="M561,-824.5C561,-824.5 361,-824.5 361,-824.5 355,-824.5 349,-818.5 349,-812.5 349,-812.5 349,-777.5 349,-777.5 349,-771.5 355,-765.5 361,-765.5 361,-765.5 561,-765.5 561,-765.5 567,-765.5 573,-771.5 573,-777.5 573,-777.5 573,-812.5 573,-812.5 573,-818.5 567,-824.5 561,-824.5"/>
<text text-anchor="middle" x="461" y="-806.3" font-family="Noto Sans CJK SC" font-size="14.00">字段组</text>
<text text-anchor="middle" x="461" y="-791.3" font-family="Noto Sans CJK SC" font-size="14.00">quote_field_groups</text>
<text text-anchor="middle" x="461" y="-776.3" font-family="Noto Sans CJK SC" font-size="14.00">材料与基体、几何结构、涂层等</text>
</g>
<!-- section&#45;&gt;group -->
<g id="edge7" class="edge">
<title>section&#45;&gt;group</title>
<path fill="none" stroke="#667085" d="M206.82,-795C206.82,-795 341.23,-795 341.23,-795"/>
<polygon fill="#667085" stroke="#667085" points="341.23,-797.63 348.73,-795 341.23,-792.38 341.23,-797.63"/>
</g>
<!-- field -->
<g id="node8" class="node">
<title>field</title>
<path fill="#f8faff" stroke="#9eadcc" d="M963,-824.5C963,-824.5 719,-824.5 719,-824.5 713,-824.5 707,-818.5 707,-812.5 707,-812.5 707,-777.5 707,-777.5 707,-771.5 713,-765.5 719,-765.5 719,-765.5 963,-765.5 963,-765.5 969,-765.5 975,-771.5 975,-777.5 975,-777.5 975,-812.5 975,-812.5 975,-818.5 969,-824.5 963,-824.5"/>
<text text-anchor="middle" x="841" y="-806.3" font-family="Noto Sans CJK SC" font-size="14.00">字段定义</text>
<text text-anchor="middle" x="841" y="-791.3" font-family="Noto Sans CJK SC" font-size="14.00">quote_field_definitions</text>
<text text-anchor="middle" x="841" y="-776.3" font-family="Noto Sans CJK SC" font-size="14.00">field_code / value_kind / impact_level</text>
</g>
<!-- group&#45;&gt;field -->
<g id="edge8" class="edge">
<title>group&#45;&gt;field</title>
<path fill="none" stroke="#667085" d="M573.21,-795C573.21,-795 699.35,-795 699.35,-795"/>
<polygon fill="#667085" stroke="#667085" points="699.35,-797.63 706.85,-795 699.35,-792.38 699.35,-797.63"/>
</g>
<!-- fieldtag -->
<g id="node10" class="node">
<title>fieldtag</title>
<path fill="#f8faff" stroke="#9eadcc" d="M1382,-821C1382,-821 1201,-821 1201,-821 1195,-821 1189,-815 1189,-809 1189,-809 1189,-789 1189,-789 1189,-783 1195,-777 1201,-777 1201,-777 1382,-777 1382,-777 1388,-777 1394,-783 1394,-789 1394,-789 1394,-809 1394,-809 1394,-815 1388,-821 1382,-821"/>
<text text-anchor="middle" x="1291.5" y="-802.8" font-family="Noto Sans CJK SC" font-size="14.00">字段&#45;标签映射</text>
<text text-anchor="middle" x="1291.5" y="-787.8" font-family="Noto Sans CJK SC" font-size="14.00">quote_field_definition_tags</text>
</g>
<!-- field&#45;&gt;fieldtag -->
<g id="edge9" class="edge">
<title>field&#45;&gt;fieldtag</title>
<path fill="none" stroke="#667085" d="M975.25,-799C975.25,-799 1181.47,-799 1181.47,-799"/>
<polygon fill="#667085" stroke="#667085" points="1181.47,-801.63 1188.97,-799 1181.47,-796.38 1181.47,-801.63"/>
</g>
<!-- field&#45;&gt;value -->
<g id="edge11" class="edge">
<title>field&#45;&gt;value</title>
<path fill="none" stroke="#667085" d="M966,-765.3C966,-715.91 966,-622.25 966,-622.25 966,-622.25 1194.19,-622.25 1194.19,-622.25"/>
<polygon fill="#667085" stroke="#667085" points="1194.19,-624.88 1201.69,-622.25 1194.19,-619.63 1194.19,-624.88"/>
<text text-anchor="middle" x="1076" y="-646.2" font-family="Noto Sans CJK SC" font-size="11.00">定义取值口径</text>
</g>
<!-- idxsrc -->
<g id="node13" class="node">
<title>idxsrc</title>
<path fill="#f8faff" stroke="#9eadcc" d="M1773.5,-614.5C1773.5,-614.5 1598.5,-614.5 1598.5,-614.5 1592.5,-614.5 1586.5,-608.5 1586.5,-602.5 1586.5,-602.5 1586.5,-567.5 1586.5,-567.5 1586.5,-561.5 1592.5,-555.5 1598.5,-555.5 1598.5,-555.5 1773.5,-555.5 1773.5,-555.5 1779.5,-555.5 1785.5,-561.5 1785.5,-567.5 1785.5,-567.5 1785.5,-602.5 1785.5,-602.5 1785.5,-608.5 1779.5,-614.5 1773.5,-614.5"/>
<text text-anchor="middle" x="1686" y="-596.3" font-family="Noto Sans CJK SC" font-size="14.00">指数&#45;字段权重</text>
<text text-anchor="middle" x="1686" y="-581.3" font-family="Noto Sans CJK SC" font-size="14.00">quote_index_source_fields</text>
<text text-anchor="middle" x="1686" y="-566.3" font-family="Noto Sans CJK SC" font-size="14.00">&#45; weight / role</text>
</g>
<!-- field&#45;&gt;idxsrc -->
<g id="edge14" class="edge">
<title>field&#45;&gt;idxsrc</title>
<path fill="none" stroke="#667085" d="M975.12,-771.25C1139.94,-771.25 1398,-771.25 1398,-771.25 1398,-771.25 1398,-575.17 1398,-575.17 1398,-575.17 1578.98,-575.17 1578.98,-575.17"/>
<polygon fill="#667085" stroke="#667085" points="1578.98,-577.79 1586.48,-575.17 1578.98,-572.54 1578.98,-577.79"/>
<text text-anchor="middle" x="1291.5" y="-728.2" font-family="Noto Sans CJK SC" font-size="11.00">作为指数输入</text>
</g>
<!-- tag -->
<g id="node9" class="node">
<title>tag</title>
<path fill="#f8faff" stroke="#9eadcc" d="M1793,-824.5C1793,-824.5 1579,-824.5 1579,-824.5 1573,-824.5 1567,-818.5 1567,-812.5 1567,-812.5 1567,-777.5 1567,-777.5 1567,-771.5 1573,-765.5 1579,-765.5 1579,-765.5 1793,-765.5 1793,-765.5 1799,-765.5 1805,-771.5 1805,-777.5 1805,-777.5 1805,-812.5 1805,-812.5 1805,-818.5 1799,-824.5 1793,-824.5"/>
<text text-anchor="middle" x="1686" y="-806.3" font-family="Noto Sans CJK SC" font-size="14.00">影响标签</text>
<text text-anchor="middle" x="1686" y="-791.3" font-family="Noto Sans CJK SC" font-size="14.00">quote_impact_tags</text>
<text text-anchor="middle" x="1686" y="-776.3" font-family="Noto Sans CJK SC" font-size="14.00">材料成本、加工难度、供应风险等</text>
</g>
<!-- fieldtag&#45;&gt;tag -->
<g id="edge10" class="edge">
<title>fieldtag&#45;&gt;tag</title>
<path fill="none" stroke="#667085" d="M1394.12,-799C1394.12,-799 1559.26,-799 1559.26,-799"/>
<polygon fill="#667085" stroke="#667085" points="1559.26,-801.63 1566.76,-799 1559.26,-796.38 1559.26,-801.63"/>
</g>
<!-- value&#45;&gt;idxval -->
<g id="edge18" class="edge">
<title>value&#45;&gt;idxval</title>
<path fill="none" stroke="#667085" d="M1381.1,-594.83C1387.2,-594.83 1391,-594.83 1391,-594.83 1391,-594.83 1391,-485.4 1391,-485.4 1391,-485.4 1587.99,-485.4 1587.99,-485.4"/>
<polygon fill="#667085" stroke="#667085" points="1587.99,-488.03 1595.49,-485.4 1587.99,-482.78 1587.99,-488.03"/>
<text text-anchor="middle" x="1486.5" y="-589.2" font-family="Noto Sans CJK SC" font-size="11.00">输入快照/驱动字段</text>
</g>
<!-- value&#45;&gt;views -->
<g id="edge23" class="edge">
<title>value&#45;&gt;views</title>
<path fill="none" stroke="#667085" d="M1381.13,-629.5C1645.55,-629.5 2404,-629.5 2404,-629.5 2404,-629.5 2404,-332.7 2404,-332.7"/>
<polygon fill="#667085" stroke="#667085" points="2406.63,-332.7 2404,-325.2 2401.38,-332.7 2406.63,-332.7"/>
<text text-anchor="middle" x="1882" y="-679.2" font-family="Noto Sans CJK SC" font-size="11.00">筛选/明细分析</text>
</g>
<!-- idxdef -->
<g id="node12" class="node">
<title>idxdef</title>
<path fill="#f8faff" stroke="#9eadcc" d="M1370.5,-515C1370.5,-515 1212.5,-515 1212.5,-515 1206.5,-515 1200.5,-509 1200.5,-503 1200.5,-503 1200.5,-453 1200.5,-453 1200.5,-447 1206.5,-441 1212.5,-441 1212.5,-441 1370.5,-441 1370.5,-441 1376.5,-441 1382.5,-447 1382.5,-453 1382.5,-453 1382.5,-503 1382.5,-503 1382.5,-509 1376.5,-515 1370.5,-515"/>
<text text-anchor="middle" x="1291.5" y="-496.8" font-family="Noto Sans CJK SC" font-size="14.00">指数定义</text>
<text text-anchor="middle" x="1291.5" y="-481.8" font-family="Noto Sans CJK SC" font-size="14.00">quote_index_definitions</text>
<text text-anchor="middle" x="1291.5" y="-466.8" font-family="Noto Sans CJK SC" font-size="14.00">&#45; formula_text</text>
<text text-anchor="middle" x="1291.5" y="-451.8" font-family="Noto Sans CJK SC" font-size="14.00">&#45; source_field_codes</text>
</g>
<!-- idxdef&#45;&gt;idxsrc -->
<g id="edge15" class="edge">
<title>idxdef&#45;&gt;idxsrc</title>
<path fill="none" stroke="#667085" d="M1382.58,-500.2C1470.69,-500.2 1591,-500.2 1591,-500.2 1591,-500.2 1591,-547.84 1591,-547.84"/>
<polygon fill="#667085" stroke="#667085" points="1588.38,-547.84 1591,-555.34 1593.63,-547.84 1588.38,-547.84"/>
</g>
<!-- idxdef&#45;&gt;idxval -->
<g id="edge16" class="edge">
<title>idxdef&#45;&gt;idxval</title>
<path fill="none" stroke="#667085" d="M1382.5,-470.6C1382.5,-470.6 1587.96,-470.6 1587.96,-470.6"/>
<polygon fill="#667085" stroke="#667085" points="1587.96,-473.23 1595.46,-470.6 1587.96,-467.98 1587.96,-473.23"/>
<text text-anchor="middle" x="1486.5" y="-484.2" font-family="Noto Sans CJK SC" font-size="11.00">定义算法</text>
</g>
<!-- idxval&#45;&gt;price -->
<g id="edge21" class="edge">
<title>idxval&#45;&gt;price</title>
<path fill="none" stroke="#667085" d="M1686,-440.78C1686,-395.28 1686,-324.25 1686,-324.25 1686,-324.25 1951.26,-324.25 1951.26,-324.25"/>
<polygon fill="#667085" stroke="#667085" points="1951.26,-326.88 1958.76,-324.25 1951.26,-321.63 1951.26,-326.88"/>
<text text-anchor="middle" x="1882" y="-419.2" font-family="Noto Sans CJK SC" font-size="11.00">复杂度/风险/倍率</text>
</g>
<!-- price&#45;&gt;views -->
<g id="edge22" class="edge">
<title>price&#45;&gt;views</title>
<path fill="none" stroke="#667085" d="M2200.33,-288C2200.33,-288 2304.48,-288 2304.48,-288"/>
<polygon fill="#667085" stroke="#667085" points="2304.48,-290.63 2311.98,-288 2304.48,-285.38 2304.48,-290.63"/>
<text text-anchor="middle" x="2256" y="-291.2" font-family="Noto Sans CJK SC" font-size="11.00">汇总展示</text>
</g>
</g>
</svg>
